<svg width="43" height="43" viewBox="0 0 43 43" fill="none" xmlns="http://www.w3.org/2000/svg">
<path d="M21.5 14.3403C17.5576 14.3403 14.3403 17.5576 14.3403 21.5C14.3403 25.4424 17.5576 28.6597 21.5 28.6597C25.4424 28.6597 28.6597 25.4424 28.6597 21.5C28.6597 17.5576 25.4424 14.3403 21.5 14.3403ZM42.9736 21.5C42.9736 18.5352 43.0005 15.5972 42.834 12.6377C42.6675 9.20019 41.8833 6.14941 39.3696 3.63574C36.8506 1.11669 33.8052 0.337886 30.3677 0.171382C27.4028 0.00487816 24.4649 0.0317337 21.5054 0.0317337C18.5405 0.0317337 15.6026 0.00487816 12.6431 0.171382C9.20558 0.337886 6.1548 1.12207 3.64112 3.63574C1.12208 6.15478 0.343272 9.20019 0.176768 12.6377C0.0102645 15.6025 0.0371201 18.5405 0.0371201 21.5C0.0371201 24.4595 0.0102645 27.4028 0.176768 30.3623C0.343272 33.7998 1.12745 36.8506 3.64112 39.3643C6.16017 41.8833 9.20558 42.6621 12.6431 42.8286C15.6079 42.9951 18.5459 42.9683 21.5054 42.9683C24.4702 42.9683 27.4082 42.9951 30.3677 42.8286C33.8052 42.6621 36.856 41.8779 39.3696 39.3643C41.8887 36.8452 42.6675 33.7998 42.834 30.3623C43.0059 27.4028 42.9736 24.4648 42.9736 21.5ZM21.5 32.5161C15.4038 32.5161 10.4839 27.5962 10.4839 21.5C10.4839 15.4038 15.4038 10.4839 21.5 10.4839C27.5962 10.4839 32.5161 15.4038 32.5161 21.5C32.5161 27.5962 27.5962 32.5161 21.5 32.5161ZM32.9673 12.6055C31.544 12.6055 30.3945 11.4561 30.3945 10.0327C30.3945 8.60937 31.544 7.45996 32.9673 7.45996C34.3906 7.45996 35.5401 8.60937 35.5401 10.0327C35.5405 10.3707 35.4742 10.7054 35.3451 11.0178C35.2159 11.3301 35.0264 11.6139 34.7875 11.8529C34.5485 12.0919 34.2647 12.2813 33.9524 12.4105C33.64 12.5396 33.3053 12.6059 32.9673 12.6055Z" fill="#CF128F"/>
</svg>
